HIERARCHY
ROOT Hips
{
	OFFSET -0.307096860106 -25.0773243393 2.16400719855
	CHANNELS 6 Xposition Yposition Zposition Zrotation Yrotation Xrotation
	JOINT LeftHip
	{
		OFFSET 6.60691251367 -9.15283833076 -1.04637069441
		CHANNELS 3 Zrotation Yrotation Xrotation
		JOINT LeftKnee
		{
			OFFSET 3.1110558577 -34.4835804856 -0.12681738932
			CHANNELS 3 Zrotation Yrotation Xrotation
			JOINT LeftFoot
			{
				OFFSET -1.39696595474 -35.9931274491 -4.13910264863
				CHANNELS 3 Zrotation Yrotation Xrotation
				End LeftToe
				{
                                  OFFSET 2.30072099968 -5.14230526486 11.548843244
				}
			}
		}
	}
	JOINT RightHip
	{
		OFFSET -6.41920830633 -9.00648660392 -0.824679088555
		CHANNELS 3 Zrotation Yrotation Xrotation
		JOINT RightKnee
		{
			OFFSET -3.41559048625 -35.4090141593 -0.549764947887
			CHANNELS 3 Zrotation Yrotation Xrotation
			JOINT RightFoot
			{
				OFFSET 1.60815257543 -36.0394695068 -3.99340325762
				CHANNELS 3 Zrotation Yrotation Xrotation
				End RightToe
				{
                                        OFFSET -2.18906603642 -4.42551277754 11.9237497134
				}
			}
		}
	}
	JOINT Waist
	{
		OFFSET -0.273405680315 11.002033926 -2.31746765591
		CHANNELS 3 Zrotation Yrotation Xrotation
		JOINT Spine
		{
			OFFSET 0.710643241817 15.2342638951 0.503316225005
			CHANNELS 3 Zrotation Yrotation Xrotation
                        JOINT Chest
                        {
                            OFFSET 0.131041245478 5.83122956935 2.49264930031
                            CHANNELS 3 Zrotation Yrotation Xrotation
                            JOINT Neck
                            {
                                OFFSET -0.382460072184 21.9460157558 -4.29068160856
                                CHANNELS 3 Zrotation Yrotation Xrotation
                                End Head
                                {
                                        OFFSET 0.0741634702089 27.8640605991 2.31439430995
                                }
                            }
                            JOINT LeftInnerShoulder
                            {
                                OFFSET 7.74558515388 12.1934922935 -3.29677054234
                                CHANNELS 3 Zrotation Yrotation Xrotation
                                JOINT LeftShoulder
                                {
                                        OFFSET 9.20562188488 2.6280180618 -0.881110993478
                                        CHANNELS 3 Zrotation Yrotation Xrotation
                                        JOINT LeftElbow
                                        {
                                                OFFSET 24.1686314729 -0.95168335886 -2.41703119077
                                                CHANNELS 3 Zrotation Yrotation Xrotation
                                                End LeftWrist
                                                {
                                                        OFFSET 22.9819944831 0.625145601029 -0.126779564677
                                                }
                                        }
                                }
                            }
                            JOINT RightInnerShoulder
                            {
                                OFFSET -8.09481598076 11.8292893582 -3.81295343402
                                CHANNELS 3 Zrotation Yrotation Xrotation
                                JOINT RightShoulder
                                {
                                        OFFSET -9.6911650395 2.86856553404 -0.956556826522
                                        CHANNELS 3 Zrotation Yrotation Xrotation
                                        JOINT RightElbow
                                        {
                                                OFFSET -23.4384916601 -0.971361863758 -1.91862937624
                                                CHANNELS 3 Zrotation Yrotation Xrotation
                                                End RightWrist
                                                {
                                                        OFFSET -23.4470054845 0.404088948339 -0.612048425831
                                                }
                                        }
                                }
                            }
                        }
                }
            }
}
MOTION
Frames: 22
Frame Time: 0.0333333333333
44.89922 105.83167 -0.88602 101.68944 -61.34028 133.33866 -11.03544 13.57274 18.85154 -11.58176 2.67562 35.03275 -10.68858 18.34669 -10.31927 -4.23270 0.52531 17.04471 0.03415 22.02259 25.80135 12.47521 -16.32517 -7.11591 4.26898 1.64136 6.99269 1.42996 -4.93221 14.55810 4.19042 6.98264 1.70848 0.72932 4.96311 15.34196 57.37417 -26.13469 -40.99334 48.99526 -7.98108 -45.60928 9.76028 -20.71681 -21.94310 -61.16633 32.13884 -43.77943 -32.46938 27.12556 -47.59718 -17.28221 24.09604 -28.78390
24.06943 106.86355 -1.01451 84.65045 -5.25189 149.27810 -37.14918 -3.61392 14.27476 -3.91407 -10.47493 -6.55944 -2.25260 9.34246 -7.28036 -8.70296 -9.68363 11.28424 -8.68146 -0.10075 -19.18702 18.06130 -21.46855 -6.58120 16.09185 9.77406 21.35491 0.34818 8.04410 2.72798 5.24381 19.18550 6.48111 -6.34675 4.44210 15.75714 71.86298 -15.21003 -50.22997 53.93700 -11.12430 -63.34910 14.59013 -7.67815 -51.18951 -78.94802 34.32025 -56.20087 -45.84735 33.64805 -64.11307 -41.67721 27.30889 -65.38929
5.15740 133.41828 -1.07687 -97.52121 -36.80292 13.02132 1.65968 -13.81039 -1.70936 -17.12168 -11.71880 85.01334 -8.77262 19.12689 2.17382 10.94314 -5.12472 9.19126 9.15886 -8.52692 66.30713 5.83396 -11.89046 1.14815 -5.97519 15.72164 -7.59644 2.39313 1.73246 -5.91203 4.90934 12.41183 -0.42676 4.89057 -4.00678 -5.84378 32.96941 -12.43867 -25.92645 13.20778 -15.64234 -21.38077 15.20229 -14.47360 -59.03203 -38.62608 35.36633 -34.51511 -6.25683 55.70876 -22.25925 -33.29984 46.04756 -35.60991
-12.73740 129.00821 -1.09743 -69.73341 5.97105 22.43308 7.85963 -36.06428 -29.76210 -21.57242 -33.46109 102.05704 3.55451 11.83803 6.04630 15.90958 -20.72246 -6.57090 -9.71601 -36.19534 82.93883 12.49670 -37.56809 12.09052 -13.98886 15.82578 -4.91132 -8.64566 -2.83958 -12.07711 -0.85709 10.37029 2.03718 6.78222 -28.53517 -38.90736 25.81651 -13.71026 -29.01749 -17.88135 -57.79497 -7.27101 50.52496 -28.18880 -77.32154 -36.60358 41.06165 -35.26047 5.96002 63.79594 -27.07630 -52.00990 37.24226 -81.06054
-27.80747 130.06428 -1.06573 -63.41708 -4.64767 16.27338 1.49492 -33.13374 -20.63837 -20.93603 -29.59685 100.75261 6.56812 5.79583 5.60097 10.34089 -18.10768 3.89937 -10.76088 -31.60529 87.08868 9.48943 -34.57567 24.21116 -13.86505 15.52833 -8.84496 -5.42027 -3.55673 -1.46398 -1.85986 9.01062 0.69565 5.08144 -28.50273 -30.49262 21.08901 -16.19217 -21.54474 -29.97247 -50.37307 -3.95066 70.50009 -28.61084 -88.13980 -24.05868 49.61526 -26.36226 61.63751 61.79770 25.39764 -88.69788 53.82929 -94.96233
-44.12670 126.56193 -0.94447 -77.41083 -54.30957 17.26276 -3.68144 -13.87727 -6.16423 -7.11296 -1.17074 96.12679 8.19469 14.58091 0.68073 -5.11574 -3.45135 7.75115 0.43946 -1.04662 97.00266 13.50722 -12.97863 29.13905 -4.80220 10.46543 -10.86151 4.36928 5.11288 3.48546 2.10162 10.46789 1.28376 10.36134 -14.51577 -14.34796 5.96363 -2.76950 -3.73744 -43.64560 -25.16476 8.51447 144.61130 -41.86737 -135.45208 1.59897 38.55108 -4.94510 96.63090 23.70359 52.80152 155.47317 75.67690 165.74420
-48.01309 116.23204 -0.84092 -80.70950 -64.63601 25.05947 -1.50412 -11.11618 -18.54997 -9.34100 8.65817 103.37404 16.66731 13.53459 -5.46463 -13.82994 -3.28862 -8.53857 6.08225 4.80606 110.53297 18.39869 -12.43829 26.91256 -0.91645 6.94891 -2.15949 8.64530 4.15211 -5.66719 4.81805 5.01807 3.48938 -3.73952 -4.03145 0.27578 -1.34272 2.60384 -1.42302 -44.63466 -21.68479 20.09651 -139.92312 -60.42019 159.20101 9.44741 2.25492 1.25303 62.31261 -8.80105 36.88846 130.00691 54.61255 151.34966
-50.98654 102.27289 -0.77128 -72.11059 -72.27898 18.48262 -0.87835 -10.52532 -26.96808 -11.35433 14.56027 113.74288 17.63721 9.31390 -18.91017 -17.62460 -3.98370 -15.06088 9.55511 2.55980 119.71145 17.98338 -9.59554 15.10591 0.33203 4.96441 4.70159 6.70499 2.71348 3.62953 1.58715 3.25125 3.23852 -2.59310 8.16308 1.87490 -3.17066 -3.21704 -0.26508 -48.69625 -23.60754 21.01302 -147.39919 -62.07559 153.60056 5.34510 5.53993 0.68925 57.22074 1.38154 34.23529 153.41118 68.48213 158.96400
-50.64792 93.82146 -0.69609 -61.94272 -75.35662 14.23251 4.94058 -9.37130 -40.14987 -12.00659 15.23822 120.96777 20.14355 8.86891 -19.49711 -16.51086 -6.15352 -24.91375 8.92956 -0.68074 128.22583 15.75468 -6.05626 8.46696 0.85336 4.54862 13.05818 3.22004 0.69170 -1.95630 0.60445 1.87005 3.96304 -8.03535 13.74363 4.34704 -8.10427 -7.88896 -1.71616 -55.71436 -28.48142 18.17778 -27.32982 -77.97116 32.32042 4.02381 3.47083 -0.78232 59.46524 1.49068 27.65610 175.82742 79.46880 -175.72795
-48.86218 88.45952 -0.62719 -57.80090 -77.36978 11.90665 10.40470 -3.75881 -45.17351 -12.36642 15.76921 121.96560 19.59311 8.42718 -19.42907 -13.43688 -7.68166 -31.42363 8.52157 -3.39187 134.70111 11.74511 -1.93869 2.76307 -0.85024 4.07143 20.38812 1.00098 -1.53006 -2.90839 0.87554 1.49476 3.21194 -11.56788 16.18187 4.28785 -9.78244 -17.03530 -2.40679 -60.42364 -34.92148 16.17980 18.86158 -55.34329 -21.93810 4.98770 11.29790 -0.92468 64.80460 11.98466 19.82282 -30.16999 61.54585 -30.73913
-49.76473 84.95972 -0.58257 -55.94802 -78.70558 13.54597 15.96682 1.39303 -49.43522 -11.28763 16.96705 122.85843 19.25332 11.69292 -20.59104 -10.75148 -8.28841 -39.65790 7.55319 -5.95538 140.40890 9.73387 -1.99928 -5.99868 -2.50159 2.84732 27.83035 -1.52550 -3.60425 -6.50805 1.58494 0.66542 1.49991 -13.47645 21.81268 -4.05220 -18.96237 -26.48830 -0.72474 -47.43058 -38.08481 7.94167 17.00828 -37.04900 -28.05891 10.23519 19.13533 -1.01974 57.80390 17.76420 13.38009 -17.20628 42.75115 -25.15252
-48.64698 83.58088 -0.54264 -59.50518 -78.40355 17.37922 15.93917 1.11194 -52.57139 -9.98778 17.27194 125.64323 18.14659 12.34483 -21.37964 -9.11889 -7.19146 -43.93348 5.76683 -7.01202 143.81896 6.96700 -3.77317 -10.64045 -3.07607 2.13265 33.41150 -1.75965 -4.05187 -6.84558 1.95106 0.10440 0.91795 -9.44409 22.81120 -3.98217 -17.73381 -31.56078 -1.09321 -40.33166 -41.28554 2.34725 16.12576 -29.09508 -27.98840 7.92647 24.33512 -1.65015 54.17691 21.81580 10.21952 -12.89721 33.47988 -19.80024
-45.92308 83.24374 -0.49049 -62.73553 -80.14829 23.65198 12.95518 1.14289 -53.32438 -10.93097 18.66549 122.49942 20.21930 11.02709 -21.72773 -8.92655 -5.49456 -49.09717 6.92158 -6.08805 148.40471 9.62384 -3.32888 -8.64578 -4.12548 0.94803 38.11425 -1.88749 -4.81020 -8.76985 1.61217 -0.17112 1.22807 -11.34590 27.71296 -9.14949 -15.92531 -36.29583 -1.65190 -32.85269 -41.13521 -3.73141 13.76515 -23.77089 -29.08250 6.92546 28.26956 -2.72863 53.10266 25.35905 7.99215 -14.25008 28.10301 -24.82316
-48.97210 89.74223 -0.48153 -60.65458 -77.26058 24.81246 12.01068 -1.63106 -55.59958 -12.44059 17.62691 121.86725 18.14934 9.58122 -21.10853 -11.23496 -6.21019 -48.35488 6.70000 -5.49788 144.27402 6.88237 -5.50844 -13.28071 -2.06448 -0.90036 39.07339 -1.13545 -5.65687 -10.05734 2.42242 -1.36523 0.76909 -14.34634 28.58423 -11.99158 -15.85669 -37.40256 -1.91052 -33.01500 -41.50226 -3.57994 13.32841 -18.62871 -31.25456 7.08776 28.71718 -4.06074 50.34817 27.13786 7.34147 -13.63656 23.61147 -28.16787
-47.32990 91.72978 -0.47468 -87.65982 -80.76901 52.80701 11.68572 -0.11725 -54.69549 -11.50153 17.65342 122.06049 17.96508 10.13371 -20.73172 -10.85624 -4.36527 -55.20370 7.21230 -4.95504 145.41528 7.78029 -5.09580 -12.02086 -2.51066 -0.79259 40.80091 -1.68104 -4.22136 -9.93982 2.12369 -0.52908 1.20672 -12.98381 30.28685 -12.13256 -11.36692 -37.89052 -4.27679 -30.02904 -39.76258 -4.84743 11.36284 -20.00378 -28.21445 3.01156 30.88733 -4.78055 49.05153 29.69267 6.67123 -10.41922 24.58789 -23.88924
-46.95198 97.96360 -0.51833 -93.76589 -79.63617 60.45159 10.87230 -0.41379 -53.17390 -11.16860 16.35378 118.60407 16.43053 9.36554 -20.48472 -12.64107 -4.16249 -53.38625 6.36751 -4.43125 139.18133 8.74385 -7.14898 -5.37335 -2.20647 -0.70395 39.00353 0.97798 -4.12683 -6.55951 2.01193 -1.47474 1.04529 -9.88441 32.46851 -9.91733 -11.15264 -37.71057 -4.04646 -27.70639 -38.53064 -6.30447 10.02941 -20.99225 -26.00719 5.47720 30.73889 -4.43344 46.64332 30.99003 8.24532 -16.46573 26.52951 -26.73521
-50.81500 105.54663 -0.56112 -90.22008 -79.06451 57.16956 8.74844 -1.45977 -48.06054 -11.77276 14.47535 114.18293 13.90248 8.82679 -22.09020 -11.82704 -5.77306 -45.43552 4.68136 -6.22131 135.05518 7.09187 -8.95776 -8.79541 -1.88888 -0.16986 37.08922 2.24649 -3.79609 -2.98518 1.75252 -1.77007 1.00854 -4.84396 28.75621 -8.14827 -11.83578 -38.27997 -2.75282 -27.77516 -39.35143 -6.19911 8.20324 -25.20028 -23.70193 6.84849 30.86710 -4.27150 44.73332 29.51300 7.53486 -21.37938 28.17248 -32.57659
-51.45867 111.63492 -0.63755 -95.47116 -81.13062 64.36662 7.46543 -1.07774 -45.68490 -13.37832 14.63992 107.88662 15.19326 6.98524 -23.90207 -11.75500 -10.30005 -44.43927 0.28542 -9.24204 131.80168 9.54964 -11.04511 -7.86059 -1.88307 0.48553 35.62423 0.56644 -3.40490 -2.74875 0.92025 -1.21785 0.73983 -4.12821 30.50576 -8.21186 -10.09307 -37.96190 -2.63454 -31.24637 -37.44049 -5.35373 7.42021 -27.48527 -15.63886 4.62296 31.12443 -3.85570 47.84222 28.50045 7.65361 -21.14314 30.15005 -25.05539
-49.60436 121.12684 -0.66226 -148.30068 -79.05294 118.31789 9.80448 3.68747 -43.55814 -14.31850 14.19271 103.48902 14.33917 5.98778 -25.39744 -9.47315 -16.51012 -42.17179 -2.99581 -14.61689 130.19542 7.80444 -10.20599 -12.83297 -1.81841 2.55419 35.24332 -0.87750 -0.89096 -2.43197 0.66632 0.06612 0.90392 -0.90415 29.06582 -7.31439 -10.81656 -34.27166 -3.76210 -34.46884 -36.85933 -3.21709 9.63736 -34.75945 -12.76804 5.03248 30.81147 -3.44996 49.00419 30.62585 9.36992 -18.68906 33.71362 -19.15341
-52.18965 129.27779 -0.74243 -137.59412 -79.15711 110.45301 9.13745 3.22090 -42.69841 -15.41562 12.56637 99.32137 16.31233 6.29099 -29.38409 -13.48622 -20.17809 -38.87229 -3.97384 -15.28821 126.74155 8.65114 -12.00447 -14.73496 -0.02633 2.76914 33.56427 -0.53564 -0.55536 -3.53195 0.92244 0.05618 0.87129 -0.14558 28.67994 -6.58163 -11.47187 -33.68547 -3.06268 -39.30717 -36.52748 -0.66085 4.88200 -30.89211 -3.06411 5.16170 29.34616 -2.98092 50.36922 28.58902 11.03070 -17.53600 35.37871 -13.36946
-47.23194 140.73942 -0.80396 -147.15296 -79.77815 123.10835 9.90129 3.80790 -43.23985 -14.43877 13.03498 95.00030 16.63738 5.93786 -28.73912 -14.59451 -21.37703 -38.88021 -6.20475 -16.44322 121.74377 9.71620 -13.72318 -10.46443 -0.12086 3.44751 33.07138 -0.65713 -0.83895 -4.86419 0.73747 0.21255 0.62322 1.85252 30.50736 -5.97367 -14.57761 -32.57632 -2.22629 -38.78529 -36.85922 -1.78133 5.36400 -28.15126 -2.40116 7.89938 27.73750 -2.36284 52.55148 28.70367 13.50236 -18.20308 38.48601 -8.59006
-52.17901 145.96279 -0.83785 -151.90185 -77.86287 128.17164 8.61527 3.75548 -38.43524 -15.29502 10.57228 90.09929 15.68028 7.44328 -29.97094 -14.62229 -20.03318 -37.09365 -3.90067 -15.10248 117.56581 10.12784 -13.52864 -16.94557 0.78451 3.23478 31.16562 0.07535 0.54636 -3.65504 1.14574 1.01891 1.24285 3.64181 32.63446 -5.78307 -14.94982 -29.57862 -2.50522 -43.11536 -34.44763 1.76770 3.54696 -31.79322 1.49330 9.35291 27.30885 -0.74257 52.37447 29.45693 14.01073 -15.23774 37.13017 -6.20706
